<?xml version="1.0" standalone="no"?>
<!DOCTYPE svg PUBLIC "-//W3C//DTD SVG 1.1//EN" "http://www.w3.org/Graphics/SVG/1.1/DTD/svg11.dtd" >
<svg>
<metadata>
Created by FontForge 20110222 at Mon Mar  7 11:20:59 2011
 By www-data
Stylin' BRK was created by Jose' Lobos and is a registered copyright (c) of Jose' Lobos. Free for personal use. For commercial use please send a mail to bigberaka@gmail.com
</metadata>
<defs>
<font id="Stylin'BRK" horiz-adv-x="663" >
  <font-face 
    font-family="Stylin' BRK"
    font-weight="400"
    font-stretch="normal"
    units-per-em="2048"
    panose-1="2 0 0 0 0 0 0 0 0 0"
    ascent="1638"
    descent="-410"
    x-height="1154"
    cap-height="1847"
    bbox="-302 -535 2911 1914"
    underline-thickness="150"
    underline-position="-142"
    unicode-range="U+0020-2122"
  />
    <missing-glyph />
    <glyph glyph-name="space" unicode=" " horiz-adv-x="569" 
 />
    <glyph glyph-name="space" unicode="&#xa0;" horiz-adv-x="569" 
 />
    <glyph glyph-name="exclam" unicode="!" horiz-adv-x="558" 
d="M159 1639h7l28 -19v-10q56 -345 225 -885l49 -203q-175 -169 -189 -169q-37 0 -50 116q-189 619 -252 972v24q170 173 182 174zM482 392h7q33 0 70 -184q14 0 21 -150q-175 -169 -189 -169q-35 0 -35 107l-42 164q-11 0 -14 63z" />
    <glyph glyph-name="quotedbl" unicode="&#x22;" 
d="M406 1739h6q130 -165 249 -447v-6l-138 -206h-5q-20 14 -101 188q-72 140 -148 247v12q128 210 137 212zM136 1645h5q16 0 53 -136q80 -184 122 -353q-119 -198 -132 -206h-11q-22 2 -85 224q-90 216 -90 253v6q129 210 138 212z" />
    <glyph glyph-name="numbersign" unicode="#" horiz-adv-x="1270" 
d="M592 1476h4q13 -9 39 -88q55 -115 136 -316l488 156l11 -16q-83 -139 -100 -148l-349 -116l67 -196q210 57 236 76q73 60 85 60l11 -16v-4q-92 -159 -121 -164q-60 -61 -161 -76l-7 -8l71 -200q7 -40 72 -192q0 -22 25 -80q-69 -125 -93 -148q-32 20 -50 120
q-52 101 -75 208q-29 64 -93 252l-399 -124l18 -248l-93 -140h-4q-20 0 -25 180l-14 176q-168 -61 -168 -72l-3 -4h-4l-14 16v8q89 156 114 156l64 28q0 84 -28 260l-182 -16q-50 4 -50 20v4q86 143 93 144l35 -4l86 8l-21 248l92 140h4q21 -6 21 -120l29 -256l282 52
q-122 271 -122 300zM360 836l18 -240q220 60 371 112v4q-70 187 -75 188q-58 -19 -314 -64z" />
    <glyph glyph-name="dollar" unicode="$" horiz-adv-x="1020" 
d="M483 1715h4l18 -18l27 -329h9l153 -51v5l4 120v5q109 165 117 166h5l18 -18l-5 -139q0 -155 68 -282l49 -65v-4l-117 -167h-13q-16 0 -99 107l-81 55l-94 42v-5q2 -166 9 -166q232 -172 274 -222q155 -179 171 -245q10 0 22 -65q0 -46 -112 -199q-86 -102 -216 -102h-81
l-22 5v-5l4 -97l-22 -119l-113 -158h-4l-18 19v14q0 33 18 88q-10 309 -27 309q-177 49 -229 97q-198 141 -198 240q97 160 139 199h5l18 -18l-23 -37q0 -89 234 -241l40 -14v5q-3 384 -9 384l-71 55q-108 46 -203 130q-31 0 -99 97l-4 41q0 35 139 222q50 42 131 42h80
q-13 75 -13 157zM209 1206q0 -11 99 -74q4 -18 94 -60l-5 5v83q0 31 -71 42l-32 4h-85zM555 703v-74q11 -264 27 -264q114 -37 143 -37h68l72 9q-13 68 -189 268z" />
    <glyph glyph-name="percent" unicode="%" horiz-adv-x="1109" 
d="M1080 1650h10l19 -18v-9q-108 -162 -295 -385q-352 -550 -352 -602l76 49q0 14 143 57q26 14 176 45q72 -10 114 -67q43 -75 43 -186v-22q0 -47 -172 -252q-96 -58 -123 -58q-51 8 -134 84q-71 75 -71 151v22q0 32 52 93v4q-108 -27 -147 -66q-22 0 -86 -111
q-4 -21 -85 -164q-23 -63 -100 -177q0 -23 -124 -168h-5l-19 14v26q0 49 167 305l142 266q16 87 315 558q10 26 80 120h-4q-49 -30 -96 -76q-88 -59 -161 -177q-20 -34 -157 -80h-43q-155 0 -176 54q-28 45 -34 75v22q0 76 110 204q85 132 228 132l76 45h24
q129 -35 129 -115l4 -27v-22l267 199q55 83 209 257zM362 1176v-13q0 -44 71 -44h14q0 33 -81 57h-4zM181 1119v-9q18 -75 33 -75q0 47 34 88v5h-20zM785 592q-35 -61 -62 -80l-28 9h-19v-5q53 -101 152 -132q26 0 38 17v5q0 123 -66 186h-15z" />
    <glyph glyph-name="ampersand" unicode="&#x26;" horiz-adv-x="1236" 
d="M584 1597q224 0 256 -66q79 -85 92 -188q-15 -121 -53 -169q-125 -183 -203 -226l-68 -61q119 -216 140 -239q216 208 401 315h5l19 -19v-5q-126 -190 -169 -197q-129 -81 -212 -160q318 -461 444 -662q-112 -164 -130 -170q-20 0 -116 165q-340 499 -353 507l-82 -249
q-117 -165 -130 -165h-15q-255 51 -255 113q-108 97 -155 301v28q0 33 159 235q86 106 218 193q-169 326 -169 376v28q0 45 159 245q128 70 217 70zM362 1381q25 -73 184 -386h9q32 33 121 71q101 61 101 99l5 23q-18 98 -53 136q-44 71 -116 71l-130 9h-15q-36 0 -106 -23z
M150 591q8 -113 106 -258q78 -94 111 -94q0 -10 101 -28q15 83 140 253v5l-183 315h-5q-12 0 -270 -193z" />
    <glyph glyph-name="quotesingle" unicode="'" horiz-adv-x="335" 
d="M171 1683h6q158 -136 158 -252v-64q0 -110 -101 -217q-72 -100 -82 -100h-6l-25 18l18 111v59q-7 91 -88 175l-44 53v6q153 209 164 211z" />
    <glyph glyph-name="parenleft" unicode="(" horiz-adv-x="484" 
d="M496 1720h7l25 -20v-5q-119 -135 -199 -362q-25 -21 -68 -162q-67 -162 -69 -250v-49q31 -269 69 -269q56 -151 155 -231q80 -86 217 -186v-10q-137 -163 -161 -176q-93 47 -267 221q-71 68 -118 181q-76 119 -87 299v68q0 92 130 412q13 3 69 152q69 158 297 387z" />
    <glyph glyph-name="parenright" unicode=")" horiz-adv-x="506" 
d="M127 1541h4q93 -56 186 -182q156 -151 209 -266l78 -168q29 -92 29 -210v-37q0 -53 -73 -290q-34 -146 -117 -317q-118 -161 -131 -168h-5l-20 19v5q49 64 122 307t73 304v23q0 183 -73 299q-48 150 -243 340q-36 59 -166 168v5q118 167 127 168z" />
    <glyph glyph-name="asterisk" unicode="*" horiz-adv-x="707" 
d="M364 1280h8q12 0 72 -172q11 -91 92 -232q210 78 268 156l68 64q16 -8 16 -20q-82 -132 -144 -188q-51 -62 -128 -100q-18 -8 -20 -16q54 -79 136 -128q61 -57 128 -104v-12l-104 -144q-86 34 -216 164q-64 52 -144 84q-101 -160 -160 -208l-16 -12h-4l-16 16v4
q128 173 128 220v4q-61 24 -316 48l-12 12q93 137 108 148l196 -4h32l-4 4v36q0 50 -64 188l-8 52z" />
    <glyph glyph-name="plus" unicode="+" horiz-adv-x="864" 
d="M539 1354h5q25 0 37 -173q46 -283 46 -331h5q273 42 441 84l14 -23q-94 -148 -130 -173q-141 -33 -302 -56l46 -341q-116 -163 -125 -163q-32 11 -32 126l-52 350q-137 -37 -394 -56q0 -6 -84 -19l-14 19v5q110 167 125 168q93 21 344 46l-51 374z" />
    <glyph glyph-name="comma" unicode="," horiz-adv-x="298" 
d="M139 641h6q63 -34 142 -108q68 -87 82 -180v-21q0 -218 -55 -288q-102 -158 -235 -328l-27 -6l-17 21q159 204 159 303l5 134v15q-27 129 -93 180l-109 88v5q133 184 142 185z" />
    <glyph glyph-name="hyphen" unicode="-" 
d="M863 850l12 -20q-88 -133 -104 -144l-752 -24l-12 16v4q97 143 104 144z" />
    <glyph glyph-name="hyphen" unicode="&#xad;" 
d="M863 850l12 -20q-88 -133 -104 -144l-752 -24l-12 16v4q97 143 104 144z" />
    <glyph glyph-name="period" unicode="." horiz-adv-x="283" 
d="M146 403h6q49 -50 191 -243v-11l-133 -193h-11q-22 16 -191 237v11q129 197 138 199z" />
    <glyph glyph-name="slash" unicode="/" horiz-adv-x="841" 
d="M1013 1616h4q18 -11 18 -27l-335 -587q-157 -313 -617 -1086q-38 -78 -58 -94q-18 12 -18 28q71 156 434 762q291 545 496 894z" />
    <glyph glyph-name="zero" unicode="0" horiz-adv-x="901" 
d="M278 1678q215 0 344 -117q162 -88 282 -365q32 -68 89 -329v-260q0 -70 -146 -328q-88 -132 -152 -181q-119 -58 -146 -58q-186 45 -350 154q-74 37 -125 148q-94 292 -94 451v143l31 249v122q0 61 178 297q53 74 89 74zM173 1461v-53l11 -11l-6 -53q0 -83 105 -276
q32 -40 89 -143l104 -127q-121 -189 -141 -191q-98 86 -151 180l-21 48h-5v-10q50 -276 104 -361q62 -68 188 -127q165 -80 224 -80q136 44 136 112q21 46 21 69v243l-36 175q-62 254 -230 446q-204 153 -308 153z" />
    <glyph glyph-name="one" unicode="1" 
d="M352 1757h6l23 -20v-136q0 -118 -18 -264l6 -348l46 -151q0 -87 45 -166q52 -106 63 -167l80 -161l34 5l194 -5q32 0 194 39l17 -15v-9q-139 -181 -165 -181q-132 -34 -189 -34l-182 4q-24 -34 -34 -34q-29 15 -57 15h-6q-110 -15 -171 -54q-92 -37 -160 -127h-5
q-30 0 -35 15v15q155 208 229 258l96 64v5l-57 156q-68 133 -68 176v49q-46 105 -46 152v93h-5q0 -30 -137 -137h-57l-23 19v5l171 206q40 88 63 357v200q138 175 148 176z" />
    <glyph glyph-name="two" unicode="2" horiz-adv-x="901" 
d="M631 1713q162 0 162 -74q13 0 17 -55v-31q0 -96 -63 -362q-34 -48 -134 -271l-273 -418v-6h6q198 92 424 117v25q-21 81 -52 135v86q140 219 150 221h6l23 -25v-61q58 -144 58 -209q85 -249 209 -381q12 0 12 -24l-151 -216q-40 0 -104 99q-37 37 -261 98h-12
q-165 0 -470 -135q-7 -16 -168 -135l-35 -31q-30 0 -35 18q107 192 290 400q189 209 273 399q99 186 99 295q29 85 29 185v24q0 80 -76 80h-52q-100 0 -238 -166l-52 -215l-145 -209h-6l-23 25q35 254 180 442q65 139 232 277q94 98 180 98z" />
    <glyph glyph-name="three" unicode="3" horiz-adv-x="908" 
d="M684 1698h7q97 0 109 -127v-26q0 -149 -206 -420h7l115 31q219 -32 219 -82q59 0 154 -211l45 -153v-140q0 -97 -90 -312q-200 -298 -283 -312q0 -13 -45 -13q-159 0 -211 39q-129 56 -129 152q-11 0 -13 96v6q0 61 186 293l26 -25v-13l-13 -51q0 -180 110 -210
q43 -26 199 -26q47 0 64 160v146q-45 201 -116 274q-68 102 -167 102q0 16 -77 19q-122 -4 -353 -185q-241 -172 -276 -172q0 13 -20 13l-6 6v7q181 293 263 293q418 258 418 471v13q0 96 -32 96h-20q-118 0 -231 -102q0 -55 -103 -185l-77 -102h-6q-26 13 -26 32
q21 123 270 446q90 110 225 159z" />
    <glyph glyph-name="four" unicode="4" horiz-adv-x="767" 
d="M541 1679h5q24 0 62 -215l139 -602h5l185 50l15 -25q-118 -180 -144 -180l-20 -5q77 -309 77 -406l15 -65v-50q17 -109 31 -126v-10l-128 -175h-16q-27 0 -41 126l-5 4v65q-21 80 -41 266l-82 311h-5q-468 -127 -652 -316h-16q-12 0 -15 20q51 107 77 231q58 128 113 426
v65q0 92 -51 185v5q124 179 133 180h5q43 0 72 -205v-65q-50 -279 -108 -421l-46 -165q191 146 375 190l82 35l-154 697z" />
    <glyph glyph-name="five" unicode="5" horiz-adv-x="998" 
d="M812 1740h6l20 -22q-112 -191 -153 -223q-108 -79 -356 -144l25 -239h11q121 246 325 333q132 39 184 39q99 0 208 -189q0 -21 41 -83q51 -143 51 -489l10 -117q-11 -125 -102 -267q-132 -204 -183 -245l-92 -44h-96q-122 38 -194 122q-214 260 -214 467v17
q124 199 133 200h5q20 0 20 -67q45 -235 158 -350q75 -120 188 -156l21 -5h96q82 47 82 56l20 88q-23 623 -76 623q-93 211 -183 211q-120 0 -275 -83q-84 -60 -107 -161q0 -75 -158 -289h-5l-20 11l5 111q-36 270 -36 367q-17 83 -25 89l-199 -17h-46l-20 22v6
q123 199 132 200h117q19 15 138 206h10l20 -22v-39l5 -123q321 95 448 156q0 13 61 50z" />
    <glyph glyph-name="six" unicode="6" horiz-adv-x="916" 
d="M519 1668h15l21 -13q-100 -209 -165 -252q-165 -205 -237 -310l-62 -221l-10 -76v-31q0 -224 134 -314q22 217 57 257q109 239 185 314q48 64 145 111l97 39l104 14h20q149 -29 258 -129l52 -61q46 -72 46 -151v-88q0 -183 -227 -505q-76 -59 -165 -97q-22 -38 -273 -53
v-5l103 -132l36 -49q-82 -162 -98 -177h-5q-71 55 -129 147q-37 41 -160 287q-88 28 -216 141q-88 125 -88 239v75q0 73 62 261q19 117 206 425q159 204 248 301q38 53 46 53zM333 597q48 -252 62 -252q120 -35 196 -49q190 0 294 71q96 33 144 106q11 15 26 124l-5 80l5 22
q-20 106 -62 146q-117 120 -175 120q0 7 -82 26q-120 0 -269 -93q-108 -87 -108 -146q-10 -112 -26 -155z" />
    <glyph glyph-name="seven" unicode="7" horiz-adv-x="871" 
d="M1120 1698h8q16 -8 16 -20q-75 -129 -160 -192q-100 -70 -140 -164l-32 -84q-35 -27 -68 -204q-28 -205 -28 -276v-296q19 -172 40 -172v-20q0 -92 80 -264l-104 -140h-4q-50 46 -84 196q-12 87 -36 156q-16 60 -16 120v296q0 139 60 420q53 86 64 144q37 70 108 176h-4
q-86 -56 -404 -136l-140 -20q156 -140 156 -196l28 -56v-12l-104 -144h-4q-13 2 -60 120q-104 139 -180 160q-14 23 -184 96l-8 12v8l100 144l40 -4h16q57 0 476 64q214 64 304 100q108 56 264 188z" />
    <glyph glyph-name="eight" unicode="8" horiz-adv-x="640" 
d="M258 1630h27q136 0 292 -64q137 -82 137 -243q0 -162 -187 -405v-6l165 -138l66 -70q62 -97 72 -98q55 90 66 92h5l22 -23v-6l-66 -133q50 -98 50 -121q0 -195 -88 -284q-76 -140 -215 -295l-27 24q154 231 154 254l5 121q-15 52 -27 52h-6q0 -17 -126 -179
q-103 -133 -187 -133h-83q-59 19 -192 127q-72 77 -72 133q0 116 204 394l71 104q-254 240 -280 336q-61 91 -61 162q6 78 110 225q124 174 171 174zM153 1393v-29q94 -195 198 -295q85 -89 127 -116q66 58 66 197q0 118 -110 191q-164 52 -242 52h-39zM368 698
q-149 -191 -149 -231l-5 -47q0 -78 143 -162l60 -46h94q87 0 170 145q-42 126 -275 301z" />
    <glyph glyph-name="nine" unicode="9" horiz-adv-x="827" 
d="M688 1694q104 0 208 -99q57 -113 57 -189q-7 -117 -213 -373q187 -263 187 -403l5 -99v-25q0 -100 -36 -199q-27 -120 -203 -332q-104 -120 -172 -135l-15 15v10q115 168 151 189q83 40 83 129q31 38 31 164v20q0 231 -94 338q-66 133 -130 184q-159 -75 -208 -75h-125
q-103 0 -202 75q-42 51 -42 109v65q4 89 244 387q11 0 37 30l21 5l36 -10q77 120 182 169q0 20 198 50zM344 1416v-25q15 -59 266 -249l52 -44q130 53 130 154q-30 174 -78 184q0 28 -146 54q-198 -30 -198 -59q-26 -4 -26 -15zM131 1227v-65q0 -131 198 -144h52
q-198 164 -198 204v35q0 11 -26 15q-18 0 -26 -45z" />
    <glyph glyph-name="colon" unicode=":" horiz-adv-x="357" 
d="M365 1271h7q25 0 44 -82l118 -207q-162 -209 -191 -226h-7q-33 0 -103 157q-59 92 -59 126v6q178 224 191 226zM196 743h7q25 0 67 -119q80 -93 139 -119l7 -7v-6l-191 -226q-86 0 -205 195l-15 37v19q178 225 191 226z" />
    <glyph glyph-name="semicolon" unicode=";" horiz-adv-x="328" 
d="M287 1155h6q28 -15 108 -144l68 -91v-11l-142 -187h-12q-62 55 -176 235v6q138 191 148 192zM241 663h6q112 -85 211 -85q25 0 34 -22v-5l-216 -369q-178 -254 -245 -278q-23 6 -23 22l171 229l114 209q-91 0 -200 101v6q138 191 148 192z" />
    <glyph glyph-name="semicolon" unicode="&#x37e;" horiz-adv-x="328" 
d="M287 1155h6q28 -15 108 -144l68 -91v-11l-142 -187h-12q-62 55 -176 235v6q138 191 148 192zM241 663h6q112 -85 211 -85q25 0 34 -22v-5l-216 -369q-178 -254 -245 -278q-23 6 -23 22l171 229l114 209q-91 0 -200 101v6q138 191 148 192z" />
    <glyph glyph-name="less" unicode="&#x3c;" horiz-adv-x="745" 
d="M961 1107h13l26 -26v-6q-152 -224 -183 -238q-99 -77 -118 -77q4 -11 190 -90q161 -84 183 -122q0 -31 -163 -238h-20q-110 91 -386 199l-274 90q-229 41 -229 77v7q158 229 170 231h268l261 52q47 32 151 57z" />
    <glyph glyph-name="equal" unicode="=" horiz-adv-x="1065" 
d="M1357 1072l21 -28q-121 -193 -140 -200q-552 -83 -1029 -106l-197 -28l-15 22v6q123 199 140 200q288 38 774 73zM116 509l1111 -28l16 -22v-5l-130 -201l-1111 28l-16 22v6z" />
    <glyph glyph-name="greater" unicode="&#x3e;" horiz-adv-x="700" 
d="M134 1085h5q57 -55 114 -55q0 -23 247 -49q0 -11 26 -11h180l181 -11h62q51 0 154 39l21 -33q-123 -207 -160 -207q-99 -10 -340 -126l-227 -87q-196 -126 -242 -142q0 -9 -42 -33l-25 22q143 245 211 245q153 104 170 104v6h-72q-7 14 -186 32q0 11 -67 11q-7 18 -82 38
q-54 32 -62 50v11q125 194 134 196z" />
    <glyph glyph-name="question" unicode="?" horiz-adv-x="923" 
d="M526 1735h130q149 -60 149 -176q18 -45 18 -94v-57q-60 -232 -131 -394q-89 -254 -89 -320q0 -75 59 -164l71 -107l-154 -226h-12q-148 170 -148 296q0 69 95 339q65 144 125 375v51q-26 219 -119 219h-126q-129 -31 -195 -106q-107 -105 -107 -206q0 -183 137 -327v-6
l-155 -226h-5q-63 22 -130 188q-31 121 -31 170q0 147 314 551q92 151 256 207zM983 442h24q54 0 112 -94q54 -102 54 -170v-43q-12 -134 -136 -313q-147 -239 -239 -239h-11q-57 0 -131 120q-36 55 -36 157v31q8 88 25 88l-6 7v12q0 35 159 256l7 6h6l29 -6q57 115 143 188
zM900 172v-25l11 -61l-88 -132q47 -113 101 -113h12q44 0 53 82v50q0 79 -71 193l-7 6h-11z" />
    <glyph glyph-name="at" unicode="@" horiz-adv-x="1474" 
d="M591 1762h10q23 -17 87 -134q150 37 226 37q221 -35 266 -73q122 -60 122 -121l21 -31v-6l-62 -103v-12q49 0 200 -78q97 -124 97 -207h5q0 -200 -41 -371l-20 -78q-13 -10 -118 -213q-75 -135 -143 -182q-132 -94 -199 -115q-42 -55 -154 -55h-20q-229 12 -323 48
l-220 116q-272 196 -343 407q-10 0 -10 24l10 43l-5 67q40 270 87 345q111 194 215 316q82 97 184 164q86 156 128 212zM759 1416v-12l68 -163l97 -195h5q122 220 199 243v5q0 39 -189 97l-163 25h-17zM136 918l5 -66l-11 -49l87 -164l26 -24l128 200l153 -30v12
q0 207 -41 400q-12 152 -20 152q-183 -71 -271 -200q-24 0 -56 -231zM960 992l76 -122q106 53 200 164v12l-123 36h-15q-64 -16 -138 -90zM1282 1022q-113 -194 -159 -255q68 -95 169 -159l41 -54v-6l-107 -182v-7h5q123 74 128 98q46 164 46 370q-8 0 -26 98q-63 97 -97 97
zM683 1004l-5 -92v-91l-6 -43h6q56 0 113 25q-103 170 -103 201h-5zM570 372q126 -97 354 -97l61 -6h21q91 0 168 67h11q-27 34 -149 133l-117 146l-272 -74q0 -54 -77 -169zM304 554q45 -59 195 -158l15 134h-41q-51 0 -169 24z" />
    <glyph glyph-name="A" unicode="A" horiz-adv-x="1013" 
d="M749 1827h10l21 -22q-15 -120 -15 -210v-33l-27 -200v-342q58 -224 116 -327q0 -20 47 -94h11q133 43 242 94l42 11h5l16 -16v-6q-130 -208 -163 -215l-53 -11v-6q133 -187 279 -232q32 0 53 -33v-6q-122 -192 -142 -199q-144 38 -247 160q-13 0 -132 150l-37 72h-5
q-337 -100 -390 -100l-131 6q-139 -172 -163 -172q-27 -37 -90 -83h-5l-21 22v6q138 223 174 227v5l-53 6h-32l-21 22v5q128 198 137 199l148 -11q0 18 36 50q80 177 106 304q42 88 110 487l27 177q0 129 57 188zM570 843q-81 -243 -158 -343l11 -11h63q71 0 194 38v6
q-47 78 -105 310h-5z" />
    <glyph glyph-name="B" unicode="B" horiz-adv-x="1162" 
d="M10 1768h10q19 0 108 -150q134 -122 633 -333q36 -24 36 -61q-21 -57 -137 -255h5l296 27h95q300 -98 300 -133q36 -102 36 -278q-24 -151 -236 -456q-142 -111 -187 -111q0 -19 -422 -55q-312 100 -331 128l-42 66v28q0 108 160 345q36 21 36 38l-19 134l-127 -23
q0 11 -14 11l-4 6v6l82 144l-91 178h-4l-78 -123h-4l-19 23l10 66q0 110 -118 401q-11 74 -96 172q93 169 122 205zM347 1196q26 -69 90 -178q0 -28 23 -49q58 30 155 110zM515 735q15 -97 32 -116l359 38l13 -27q-104 -200 -127 -200q-90 -17 -263 -28q-23 -56 -37 -162
l155 -49q399 28 459 66q141 81 141 122l4 34q0 272 -68 272q-206 83 -237 83h-103zM315 363v-17q33 -66 82 -66q9 24 9 71v34z" />
    <glyph glyph-name="C" unicode="C" horiz-adv-x="931" 
d="M735 1750h6l22 -15l-6 -36v-67q0 -165 176 -451q158 -193 158 -236l-142 -180h-11q-99 90 -137 159q-21 17 -66 92q-170 175 -328 175h-22q-83 0 -213 -92q-44 -128 -44 -262v-103q52 -213 137 -266q88 -96 224 -160q117 -46 345 -46q219 69 219 103l77 92h5l22 -20
q-15 -58 -208 -288q-35 -33 -235 -97q-303 0 -438 92q-102 65 -148 108l-82 87q-55 85 -77 200q-10 0 -11 26v108q0 304 235 554q0 43 181 133q57 41 137 41h16q47 0 72 -10l-11 72v72q0 41 147 215z" />
    <glyph glyph-name="D" unicode="D" horiz-adv-x="1072" 
d="M77 1802h6q51 -39 118 -253q79 -115 164 -197q48 -47 105 -76q188 -142 415 -263l311 -232q141 -159 141 -183l11 -61q-9 -101 -276 -384q-189 -197 -568 -197q-58 0 -240 81q-32 0 -169 116q-19 0 -29 116q16 45 164 208l99 31v80l-65 329l-5 5v35q-35 92 -35 142
q17 5 17 30l-17 11q-6 -123 -153 -284q-43 -60 -52 -60h-6l-23 20v5q52 105 52 147q0 429 -35 429q-82 168 -82 218v5q142 181 152 182zM470 968v-20l41 -192l6 -213l5 -15h99l235 -11h12l23 -20v-5q-136 -175 -158 -182l-240 10h-36l-63 -76l164 -65l76 -15q266 0 427 96
q105 48 105 121q0 69 -81 141q-55 84 -276 234q-117 89 -251 156zM300 315v-10l47 -25v30l-6 5v5l-6 -5h-35z" />
    <glyph glyph-name="E" unicode="E" horiz-adv-x="1057" 
d="M279 1810l195 -130q109 -91 204 -134q37 -43 297 -101l51 -9q22 0 98 38l20 5l15 -19v-5q-119 -167 -138 -173q-79 -43 -107 -43q-150 24 -333 91q-32 28 -92 58v-5q0 -134 -46 -245h5q325 -43 450 -43h6q20 -10 20 -24q-113 -159 -133 -173h-5q-104 0 -409 39
q-51 -195 -67 -317q0 -232 128 -297q99 -96 307 -96h20q131 24 190 76q66 28 66 125l10 58v57l-56 135q108 153 133 172h5q18 0 77 -148v-63q-19 -164 -61 -216q-132 -200 -241 -292q-115 -87 -194 -87q-19 -14 -51 -14q-221 0 -317 91q-77 38 -128 120q-46 67 -46 221
q0 104 117 484v5l-271 43h-31l-20 20v4q124 172 133 173h31l215 -34l5 24v34q0 125 -67 250l-87 129q-14 0 -36 38q119 165 138 178z" />
    <glyph glyph-name="F" unicode="F" horiz-adv-x="998" 
d="M402 1772h5q20 -11 20 -27q-54 -100 -54 -164v-21q0 -37 68 -37l870 -229h34l20 -21v-5l-128 -191h-24q-31 0 -762 196h-5l74 -244q400 -48 408 -58l5 -6v-10l-128 -191l-241 26v-5l10 -101q0 -293 -167 -509l-69 -101h-5q-19 11 -19 27q108 174 108 408q0 110 -54 313
q-282 43 -378 80l-5 5v11q116 189 132 191q151 -37 187 -37l-79 260q-260 88 -260 116v6q119 189 128 191h5q29 -22 172 -75q90 152 132 202z" />
    <glyph glyph-name="G" unicode="G" horiz-adv-x="1296" 
d="M564 1735h40q103 -10 194 -75q37 -9 125 -86v-6l-148 -207q-14 0 -114 69l-80 46l-114 23h-29q-86 -9 -86 -57l-11 -110v-63q0 -108 17 -230q372 39 497 115q152 47 285 178q57 47 126 150q51 87 126 167q26 -11 28 -23v-12q-194 -278 -194 -345l-40 -184v-6
q17 -79 17 -218v-18q19 -146 74 -264q40 -119 143 -236q120 -131 120 -144q-126 -191 -148 -207q-178 159 -246 293q-75 154 -97 248h-6q-155 -226 -211 -253q-125 -104 -217 -104h-11q-132 0 -309 345q-68 158 -108 282l-17 -6l-240 -5q-80 15 -80 34v6q138 205 148 207h18
l45 -12h103v115q0 224 160 397q0 18 125 156q18 17 115 40zM427 832q118 -305 199 -351q48 -69 109 -69h23q222 64 222 201q46 56 46 69q0 107 -17 219q40 160 40 207h-6q-170 -150 -251 -161q-238 -115 -365 -115z" />
    <glyph glyph-name="H" unicode="H" horiz-adv-x="1042" 
d="M930 1839h5l21 -21q-21 0 -42 -570v-36q34 -318 63 -318q135 10 352 128l5 5l21 -20q0 -22 -135 -201l-150 -66l-42 -16l177 -539q-114 -171 -135 -185q-35 0 -67 159l-177 514q-205 -62 -414 -62l-83 -10l-5 -36v-169l-135 -185l-26 25v149q0 37 47 195v16h-6l-248 -21
l-16 21v5q123 184 140 185l104 10h26q31 0 31 52l10 138v5q-16 137 -21 345l135 179h5q26 0 26 -159l16 -190v-15l-31 -339h5q137 0 394 30l-26 201q0 547 62 647z" />
    <glyph glyph-name="I" unicode="I" horiz-adv-x="611" 
d="M290 1847h5q60 0 136 -113v-53q-38 -139 -120 -268v-28q14 -27 84 -75h31l178 66h5l20 -19v-5q-144 -211 -250 -246l-188 -122l-167 -85h-5l-22 19v5q111 154 163 189l73 28l-84 80v42l94 184l26 94v24q0 44 -94 94l-20 19q126 169 135 170zM697 1161l16 -19v-10
q-121 -164 -141 -169q-50 -15 -157 -104v-5q25 -104 110 -297q11 0 37 -213v-56q0 -202 -110 -400q-39 -94 -130 -207q-118 -156 -162 -185h-5q0 11 -16 11l-6 4v5q185 230 215 358q52 88 52 259v56q-20 198 -58 264q-89 205 -89 255q5 60 42 108v5h-5l-313 -132l-16 -15h-5
l-21 19v10q134 194 183 194q349 135 537 249z" />
    <glyph glyph-name="J" unicode="J" horiz-adv-x="946" 
d="M621 1720h5l22 -17q-6 -114 -27 -241l5 -97l-12 -73q0 -164 67 -460q70 -136 144 -163q84 -76 227 -106q139 -36 139 -62v-6l-139 -202q-254 0 -354 29h-84q-136 -32 -176 -79q-167 -137 -167 -146q-55 -105 -199 -298h-6l-22 17l5 40v285q-39 257 -116 433l144 198h6
q54 0 138 -440v-191q112 171 244 259l133 112q-98 107 -111 225q-34 176 -44 370l11 73l-6 102v5l23 135v62q0 46 150 236z" />
    <glyph glyph-name="K" unicode="K" horiz-adv-x="990" 
d="M1204 1772h6l25 -23v-7q-128 -189 -236 -280l-279 -241h13l298 135l36 30h7q24 -13 24 -30q-31 -122 -67 -176q-38 -168 -56 -387q43 -317 142 -451q67 -140 179 -199l7 -18q-137 -194 -161 -211q-109 37 -210 216q-125 212 -125 358l-24 117q24 315 80 446q13 0 24 59
h-5q-246 -123 -540 -217q31 -163 75 -540q12 0 12 -70v-11q-144 -205 -168 -211q-30 0 -30 94q-17 56 -62 457q-9 0 -38 205h-6l-93 -18h-68l-31 24l168 223q-13 244 -38 444l161 206h7q41 0 56 -381l17 -234q155 31 218 99z" />
    <glyph glyph-name="L" unicode="L" horiz-adv-x="1080" 
d="M342 1780h5q20 -12 86 -141q188 -278 188 -455q10 0 17 -129q-17 -34 -57 -202q-51 -145 -222 -380h5l35 12h114q111 0 348 -93v301q139 220 149 222h6l23 -25v-295q0 -55 79 -208q24 -106 86 -161q30 0 103 -110v-5q-133 -220 -155 -222q-39 18 -160 154
q-441 179 -554 183l-56 7h-98q-228 -49 -268 -73l-160 -87q0 12 -16 12l-7 7v5q163 290 246 290q193 89 251 184q55 0 103 196q0 27 28 92q-27 279 -91 386l-177 301v12q138 220 149 222z" />
    <glyph glyph-name="M" unicode="M" horiz-adv-x="1050" 
d="M721 1794h5q29 -15 29 -79v-126l-10 -55q0 -226 50 -393l70 -300q129 -344 268 -523q21 -10 75 -100q234 -252 288 -254q40 -30 129 -68q40 -23 40 -30q0 -24 -124 -186h-5q-121 44 -269 151q-248 241 -248 278q-101 109 -194 289q-125 275 -149 443l-10 41h-5
q-45 -117 -70 -549q-8 0 -10 -74v-21l-129 -179h-5q-35 25 -94 209q-120 198 -139 289h-5q-16 -81 -75 -214q-5 -66 -65 -140l-79 -109h-5l-20 19v6q0 42 75 214q44 190 44 324v160l-39 194v65q120 179 129 180h5q24 0 35 -150q47 -70 154 -394q26 -71 89 -195h5
q25 148 95 355v94q34 161 34 644v9z" />
    <glyph glyph-name="N" unicode="N" horiz-adv-x="1087" 
d="M948 1753h5l23 -14l-6 -25v-38l-22 -294v-10q0 -212 119 -540q45 -84 147 -347q53 -117 118 -179q40 -48 40 -67q-141 -169 -153 -169q-130 62 -226 145q-304 253 -441 419q-98 93 -249 280h-6v-5q0 -44 57 -299l34 -188l-29 -154l-141 -164h-6q-22 10 -22 24
q0 48 22 140q-34 213 -79 390q0 75 -113 483l-96 188q-34 30 -34 67l147 169h11q12 -2 63 -92q235 -239 548 -607l272 -275v5q-64 86 -142 438q-17 90 -17 160v33l23 295v38q0 26 153 193z" />
    <glyph glyph-name="O" unicode="O" horiz-adv-x="834" 
d="M448 1742q114 -13 275 -174q57 -78 57 -100l62 -87l94 20h31l50 -13l19 6q44 -9 44 -26q-69 -248 -81 -248h-13l-94 7l7 -54q0 -430 -94 -668q-80 -272 -213 -368q-42 -27 -200 -67h-38q-148 0 -275 234q-56 80 -56 314v47h6l-6 7l18 140q-38 0 -81 154v7l7 40l-7 47
q0 144 194 581q130 160 244 188zM79 1127v-40q25 -92 44 -94q24 122 50 134h19l6 -7h6l-31 -167l44 -7h18q72 0 232 154q135 102 181 167q-95 145 -250 201l-19 7q-135 -44 -238 -161q-37 -83 -62 -187zM185 672l-37 7h-7v-20q0 -216 182 -381l88 -41h31q194 41 269 134
q69 148 69 228l-7 53l7 7v6l-7 7l13 154q-15 179 -38 267h-12q-77 -44 -300 -254q-188 -160 -232 -160z" />
    <glyph glyph-name="P" unicode="P" horiz-adv-x="925" 
d="M65 1850h10l25 -27v-25q0 -99 140 -292q12 0 83 -89q27 0 45 -37q18 0 431 -219q288 -117 288 -198q20 -9 40 -89v-10q0 -190 -90 -292q-101 -173 -188 -198q-62 -32 -303 -89q70 -160 95 -261l5 -5v-77q-23 -97 -75 -152q-60 -103 -73 -110h-5l-20 22v15l20 63v52
l-30 110q-80 187 -135 374q-74 44 -143 152l-5 67q0 26 70 131q-39 145 -55 245q-9 0 -10 52v115l10 136q-55 27 -55 62q-93 82 -148 209q-45 68 -45 140v17l-10 15v5q120 187 128 188zM338 1130v-5l65 -298q10 0 10 -25h5q163 30 273 30q75 -5 75 -30l-125 -188l-60 5h-35
q-63 0 -88 -10q0 -121 78 -121l30 -5h5q179 32 383 99q20 0 20 116v5q-16 81 -90 146q-50 43 -288 141q-245 140 -258 140z" />
    <glyph glyph-name="Q" unicode="Q" horiz-adv-x="968" 
d="M449 1660q186 -15 342 -63q169 -60 207 -146q53 -67 79 -313q30 -160 30 -204q0 -147 -79 -381q-46 -98 -173 -282q0 -26 124 -168l133 -93v-10l-123 -184q-129 36 -278 250l-29 43q-151 -99 -267 -99h-5q-262 36 -262 67q-110 69 -143 177q-55 156 -55 189v16
q0 150 49 245q13 91 129 266q-59 121 -59 136v63q0 119 123 282q84 144 183 188q49 21 74 21zM222 1336v-58q9 -47 49 -104h6l93 68l20 -20v-11l-79 -125q49 -119 203 -345q101 -160 262 -366l19 -42q114 0 159 418v5q-5 104 -69 444q-80 162 -164 162q-110 58 -360 84h-25
q-50 0 -109 -53zM163 887q-60 -106 -60 -251v-31q80 -293 139 -293q36 -47 128 -67l159 -21l69 4q-262 345 -435 659z" />
    <glyph glyph-name="R" unicode="R" horiz-adv-x="975" 
d="M140 1849h6l22 -21v-5q-15 0 -45 -168v-16q41 -167 185 -280q76 -81 263 -210q72 -79 72 -147q0 -37 -89 -163h6q269 105 481 421l5 5h11l23 -21q-163 -380 -163 -605q-11 0 -11 -94q43 -263 151 -401q92 -173 279 -319q79 -28 79 -52q-130 -188 -151 -191
q-224 103 -408 431q-89 130 -123 363v16q42 405 72 405l40 115v6h-6q-181 -210 -408 -300q-28 -28 -96 -53q68 -242 113 -278l72 -143l17 -46q-139 -184 -151 -184q-27 0 -56 99q-93 114 -179 401q0 78 -39 78l-22 16l33 57q-92 450 -94 705v5q-79 167 -79 190v21
q14 146 95 248zM235 1081v-5q28 -193 68 -358l167 110q0 111 -229 248z" />
    <glyph glyph-name="S" unicode="S" horiz-adv-x="890" 
d="M541 1844h4l20 -20v-23q0 -109 44 -204q5 -74 288 -383v-4q-125 -175 -137 -175q-15 0 -147 126q-194 165 -278 165q-40 19 -186 34v-5q109 -159 152 -170q67 -63 332 -252l347 -242q180 -158 196 -218l29 -161v-57q0 -106 -147 -281q-38 -85 -244 -97l-127 -4
q-60 0 -210 52v-4q0 -116 29 -286l-127 -170h-5q-29 0 -34 127q-15 0 -15 169q0 40 39 193v6q-321 176 -370 314q-14 0 -84 165q-20 48 -20 140v53q0 36 166 248q101 43 177 43h19q-182 147 -211 209q-82 90 -82 165v5q0 44 161 242q20 19 39 19h24q214 -18 235 -29v5l-5 92
v38q118 174 128 175zM41 715q0 -157 177 -388l181 -125h4l35 232l-54 184q-23 77 -79 77q-72 29 -112 29h-83zM554 706v-5l35 -116l-68 -441l186 -59l98 -15q249 7 249 29v54q-29 194 -54 194q0 29 -210 204z" />
    <glyph glyph-name="T" unicode="T" horiz-adv-x="953" 
d="M649 1844h5q21 -11 21 -27q-64 -197 -64 -397h6q363 58 574 132l101 27l21 22h5l22 -22q-137 -217 -176 -217q0 -11 -79 -16q-99 -52 -436 -116l-6 -5q192 -650 192 -869v-112q-22 -173 -70 -254q-111 -164 -128 -164q-20 7 -20 22q52 162 52 227v106q0 208 -175 821
q-21 62 -48 206l-298 32q-10 13 -148 42q-150 66 -150 85v6q129 189 138 191h7q210 -123 467 -123v22q56 243 85 243q89 133 102 138z" />
    <glyph glyph-name="U" unicode="U" horiz-adv-x="931" 
d="M649 1606q33 0 169 -288q173 -343 173 -458q34 -78 34 -207v-19q-17 -215 -63 -316l-158 -208q-102 -68 -179 -80h-58q-202 0 -279 95q-162 109 -212 226q-20 8 -72 208q-29 88 -44 183v171q0 151 15 236v23q116 168 124 170h6l19 -19v-33q-15 -57 -15 -232v-160
q15 -94 53 -221q39 -159 101 -227q36 -63 227 -203q82 -23 179 -23h53q61 0 124 51q30 153 30 208v14q0 108 -53 307q0 32 -160 372q-28 28 -53 109l-86 142v9q117 169 125 170z" />
    <glyph glyph-name="V" unicode="V" horiz-adv-x="968" 
d="M1037 1754h5q31 0 31 -128q0 -93 -189 -651q-51 -181 -51 -344l11 -64l-11 -143q0 -81 46 -270l26 -124v-9q-119 -159 -138 -165q-19 0 -36 55l-168 312q0 19 -92 192q0 21 -112 175q0 17 -102 123q-23 38 -148 175q-19 38 -132 151q-12 0 -77 73v9q124 164 133 165h5
l112 -100q14 -25 87 -97q27 -46 173 -206q0 -11 92 -110q148 -218 148 -248q8 -1 20 -36h5q0 254 174 706q66 229 66 293l-10 106z" />
    <glyph glyph-name="W" unicode="W" horiz-adv-x="1281" 
d="M1245 1724h12l18 -18v-17q-24 -59 -61 -298l-31 -77v-35q0 -260 92 -813q37 -82 80 -251l62 -135l62 -122q49 -64 49 -106l-160 -205h-13q-279 253 -308 316q-152 160 -234 322q-154 236 -252 456h-13v-41l-37 -368l-37 -153q-141 -187 -154 -187q-41 0 -86 310
q-10 0 -43 199q-135 343 -271 503v6q149 209 160 211h6q30 -8 136 -176q86 -156 148 -339h6l25 374v217q149 209 160 211h6q33 0 80 -252q78 -310 246 -603l161 -257h6v12q-68 474 -68 696v29q37 70 74 328q14 1 25 64z" />
    <glyph glyph-name="X" unicode="X" horiz-adv-x="819" 
d="M883 1594h5q32 -16 32 -85v-16q0 -105 -75 -240q-121 -254 -236 -399l-11 -27q107 -133 526 -554l16 -21v-6l-139 -192q-16 1 -456 459q-72 90 -81 90q0 -21 -161 -261q-59 -141 -59 -197v-53q-124 -185 -145 -192l-21 16v59q10 153 193 426q36 44 113 207l37 48
q-19 32 -155 171q-128 180 -220 288l-86 122v11q130 190 139 192h6l107 -150q99 -107 241 -309l113 -106q188 333 188 426v21l-11 86z" />
    <glyph glyph-name="Y" unicode="Y" horiz-adv-x="983" 
d="M411 1748h5q63 -36 121 -129l86 -141q64 -79 92 -176q40 -82 155 -202q37 -53 115 -129q195 -237 195 -369q63 -141 63 -219q-52 -253 -92 -253q-142 -172 -218 -223q-135 -64 -201 -64l-97 -5q-119 0 -345 112q-94 53 -120 120q-64 72 -64 150q18 65 282 309
q75 47 217 64h18q23 -8 23 -21q-132 -155 -161 -155q-136 -15 -183 -47l-6 -4l-12 -13q0 -64 98 -193q0 -17 150 -86q155 -60 235 -60q204 0 258 69q22 60 40 167q0 46 -68 245q0 74 -121 244q-26 44 -161 185q0 14 -35 39v4h-5l-161 -155q-65 -26 -109 -34q-185 21 -247 64
q-96 52 -127 121q-22 0 -79 133v43l-29 111v133l-6 43l150 150h5q29 -11 29 -34v-150q36 -223 103 -284q54 -94 201 -137l127 -17l45 9v68q0 76 -86 168q0 17 -69 124q-9 47 -81 137q-85 117 -85 133z" />
    <glyph glyph-name="Z" unicode="Z" horiz-adv-x="1087" 
d="M1015 1683h9l19 -21q-65 -107 -168 -326l-239 -438q-49 -83 -102 -203q-60 -101 -107 -240q-7 0 -38 -87q-8 0 -24 -41h5q238 164 415 179q65 20 118 20l117 -15q-98 218 -98 300l116 174h10q16 0 37 -112q131 -308 131 -331q7 -1 103 -209q99 -127 126 -184
q-103 -169 -121 -183h-5q-12 0 -136 173q-213 163 -280 163l-112 15q-310 -43 -407 -132q-81 -31 -196 -148q-63 -107 -99 -107l-14 26l187 290l61 153q46 119 98 203q19 53 173 337l117 219q53 73 117 229h-5q-240 -190 -368 -214q-55 -33 -118 -46v-4q126 -178 126 -286
v-16l-121 -182h-5q-18 0 -27 101l-38 87q-55 115 -211 214q-44 51 -106 51l-15 15q109 174 126 189h33l89 -16h9q133 0 421 122q90 22 360 240z" />
    <glyph glyph-name="bracketleft" unicode="[" horiz-adv-x="1236" 
d="M699 1742h6q22 0 76 -208q152 -437 152 -727l-159 -190q-48 0 -48 214q-69 348 -172 642l-14 55v25q127 168 159 189zM92 1485h7q28 0 96 -183q72 -93 290 -581l27 -104v-12l-158 -195q-33 0 -76 177l-345 703v6q127 169 159 189zM1312 477q21 0 21 -25
q-138 -195 -172 -195q-732 -245 -890 -324h-7l-21 19v6q161 219 207 219q294 123 849 300h13z" />
    <glyph glyph-name="backslash" unicode="\" horiz-adv-x="782" 
d="M97 1914h6q20 -5 76 -190q169 -353 579 -1394l76 -136q0 -36 -134 -231q-36 0 -193 374q-321 832 -462 1122q-82 194 -82 237v7q108 188 134 211z" />
    <glyph glyph-name="bracketright" unicode="]" horiz-adv-x="2144" 
d="M714 1841h5q15 0 52 -114q97 -174 142 -191q109 -73 233 -123q99 -51 99 -119v-29q0 -88 -99 -229h4q113 83 209 177l-5 4v24q-19 102 -19 162v38q87 132 109 148h5q14 0 14 -19q29 -229 29 -300l-10 -110l5 -5h5q0 10 497 519h10l14 -14v-5q-66 -120 -251 -300
l-209 -219h5q30 0 242 105q197 90 279 153h10l14 -15v-5q-93 -141 -152 -204q-73 -114 -161 -438v-67q0 -300 43 -352q55 -136 147 -191l61 -57l-109 -152q-52 6 -175 148q-95 137 -95 338l-5 204q38 141 105 319q48 114 118 224h-9l-119 -62q-16 0 -232 -105q-57 0 -57 -42
q-9 -99 -43 -210q0 -28 -61 -276q0 -17 -52 -95q26 -55 113 -129q3 -9 67 -38v-9q-88 -132 -109 -148h-14q-38 0 -162 129l-23 42q-57 103 -57 300v76q0 102 137 443l-151 -124l-124 -100q-10 -16 -85 -66q8 0 14 -381q-81 -127 -109 -152l-19 9q-4 302 -14 348l-99 -167
q-147 -211 -266 -343q-85 -62 -128 -62h-52q-50 0 -99 81l-15 53v38q11 101 86 228l42 57l-66 296l-38 -15q-19 7 -19 15v4l43 62q-120 576 -133 576q-23 13 -42 57q-10 0 -29 86v38q87 132 109 148h5q13 0 28 -91q8 -53 109 -133q184 -103 285 -143q0 -10 104 -86l19 -52
v-24q0 -27 -67 -119h5q50 15 100 15h85v4l-47 310v62l14 28q-85 121 -100 210v4q88 132 109 148zM856 1336v-4q22 -148 34 -491h4q89 68 133 129q90 91 90 166v10q0 82 -208 157zM226 1246l66 -305q146 75 185 134q0 33 -99 90q-9 21 -104 57q-4 10 -48 24zM1345 1041
l-38 -104v-5q47 45 47 100v9h-9zM1302 927l-47 -181l-5 -71v-5l9 -191l5 -4h5q22 146 52 243q0 53 24 190q-38 0 -38 19h-5zM321 817l47 -214h5q60 89 152 119h42q38 -18 57 -52q0 -25 -109 -162h-4q-47 48 -57 48q-61 -16 -67 -34l19 -104q-81 -127 -109 -153q-27 0 -33 81
h-9l-15 -76q24 -119 105 -119h14q84 0 218 176q133 223 133 248q-19 7 -19 14v5q61 79 61 138q-22 171 -95 171l-52 5h-38q-91 0 -246 -86v-5zM2165 894h5l14 -10l-5 -224v-157q0 -88 -47 -123q-33 -63 -66 -91h-5l-14 10l4 247v110q0 110 38 138q55 85 76 100zM1999 837h4
l19 -20l5 -357l-109 -142h-5l-19 19l-4 357z" />
    <glyph glyph-name="underscore" unicode="_" horiz-adv-x="1199" 
d="M1436 225l12 -20q-96 -152 -124 -152l-132 -36q-130 -28 -348 -40l-128 -16l-764 -8l-12 16v4q97 143 104 144l776 8q81 16 336 32l164 32q15 11 116 36z" />
    <glyph glyph-name="grave" unicode="`" horiz-adv-x="402" 
d="M104 1742h6q21 -2 218 -416q-110 -168 -148 -202q-34 0 -224 416v7q118 174 148 195z" />
    <glyph glyph-name="a" unicode="a" horiz-adv-x="752" 
d="M533 1489q24 -10 27 -21l-5 -53q0 -227 49 -388q22 -196 94 -410l89 -192h50l44 12h12l16 -16v-6l-78 -106v-11q101 -158 167 -234v-10l-122 -165h-17q-130 136 -211 309q-7 37 -22 37h-44l-371 5l-177 -254l-6 -6h-12l-16 16v15q0 12 127 202l6 27h-16l-83 -5l-12 15v6
q114 169 145 169q55 0 55 38q72 170 177 824v27q107 150 134 175zM449 862q-61 -242 -99 -324l-40 -113h250v6q-46 87 -77 250l-28 181h-6z" />
    <glyph glyph-name="b" unicode="b" horiz-adv-x="1169" 
d="M353 1348q34 -10 34 -38l249 38h81q141 -25 141 -87v-81q0 -34 -141 -218h13q103 57 303 57h26q171 0 196 -112q18 -101 40 -125v-62q0 -181 -423 -628q-230 -197 -324 -197q0 -14 -33 -14h-68q-209 0 -309 187l-6 31v62q0 48 215 286v12q-10 156 -27 156q-34 4 -34 18
l27 63q-47 270 -101 372v7h-6q-119 -32 -222 -32l-14 19v6l155 199h46q129 0 169 81h13zM455 1118l40 -223h6l128 74q48 40 48 81q0 80 -155 80zM528 708v-93q0 -73 14 -99l268 12l14 -19v-7q-124 -171 -155 -192q-201 0 -201 -31q-34 -59 -67 -87l-35 6v81q-46 -2 -46 -12
q81 -149 195 -149q0 -14 94 -19q110 12 236 99q268 193 268 379q-25 45 -40 136q-20 69 -74 69l-81 19q-204 0 -390 -93z" />
    <glyph glyph-name="c" unicode="c" horiz-adv-x="797" 
d="M481 1318q176 0 230 -69q0 -17 60 -101q37 -51 88 -240v-13q-124 -174 -155 -195h-7q-17 3 -101 240q-80 151 -182 151l-48 6q-162 -61 -162 -157q-17 -21 -54 -139q15 -144 61 -271l74 -114q106 -144 264 -176q44 -19 94 -19h81q189 38 189 88l108 132l27 -18v-13
q0 -44 -229 -322q-38 -44 -68 -44q-20 -20 -121 -44h-162q-167 26 -304 139l-115 151q-81 164 -81 353q57 244 351 580q125 95 162 95z" />
    <glyph glyph-name="d" unicode="d" horiz-adv-x="946" 
d="M124 1392q376 -19 733 -189q202 -129 210 -197l22 -144v-90q0 -174 -348 -606q-234 -166 -392 -166q-29 11 -29 23v15l58 91l-189 968l-224 30l-15 23v7q142 228 174 235zM451 1036v-7l145 -742q268 112 268 182q25 0 29 159q-29 227 -94 227q-67 65 -269 159z" />
    <glyph glyph-name="e" unicode="e" horiz-adv-x="879" 
d="M680 1385h54q89 -30 145 -94q38 -64 59 -149v-60q0 -498 -80 -530q-36 -74 -97 -133q-53 0 -547 276l-81 50q-48 -108 -48 -160q23 -183 70 -270q96 -122 214 -122h49q105 0 193 83l91 77q21 -8 21 -16q0 -25 -139 -216l-118 -82q-60 -39 -91 -39h-145q-117 0 -226 155
q-40 66 -64 242v17q0 98 80 265q0 22 54 105l-80 49q0 15 102 171l21 22l86 -49q309 408 477 408zM246 944q174 -114 536 -293l6 6v5l5 282q0 65 -64 176q-73 72 -145 72q-112 0 -338 -248z" />
    <glyph glyph-name="f" unicode="f" horiz-adv-x="923" 
d="M345 1474h6q18 0 33 -88v-115q0 -13 501 -122l480 -142v-6l-151 -217h-14q-537 149 -802 203v-7l6 -27v-223l13 -13h395q158 0 158 -27v-7q-121 -187 -151 -210l-415 7l-6 -20l6 -230q-108 -179 -158 -230h-6l-20 20l6 21l-6 101v297l6 34l-6 7h-250l-20 20v7
q121 187 151 210h119v162q0 162 -46 162q-217 39 -217 61v7q128 203 158 209l105 -13q104 159 125 169z" />
    <glyph glyph-name="g" unicode="g" horiz-adv-x="1072" 
d="M545 1325h65q124 -26 201 -116l90 -110v-13q-126 -195 -155 -201q-14 0 -123 136q-96 78 -181 78q-172 -21 -240 -84q-38 -72 -77 -304v-20l19 -136q115 162 143 162q96 0 530 155q172 101 291 188q26 39 52 39l26 -20v-6q-142 -268 -142 -472v-162l6 -71l-6 -7v-6
l64 -330l-148 -194h-7q-37 0 -45 149q-39 118 -39 207v77h-7q-158 -252 -381 -252h-149q-68 0 -143 39q-111 48 -174 155q-44 71 -65 278v33q0 214 155 465q205 324 356 324q13 16 84 19zM164 484q0 -103 168 -207q84 -39 168 -39h104q170 0 252 182q11 0 26 174
q47 138 84 201v13h-6q-205 -158 -356 -194q-336 -130 -440 -130z" />
    <glyph glyph-name="h" unicode="h" horiz-adv-x="983" 
d="M936 1429h6q21 0 21 -24q-29 -266 -48 -761l7 -6h14l82 -5l145 11q28 -9 28 -17q-129 -172 -166 -192q-110 -8 -110 -24l-14 -156l7 -78v-149q-129 -171 -166 -192l-27 12l6 30l-6 156l6 353v48h-366l21 -252l-159 -185q-48 0 -48 251l-21 180q-158 -12 -158 -24h-14
l-21 18v18q132 176 173 192l-42 497l159 179h7q34 0 48 -323q33 -342 49 -342h379q14 337 56 611q139 174 152 174z" />
    <glyph glyph-name="i" unicode="i" horiz-adv-x="238" 
d="M226 1705l20 -12l-7 -41v-111l-13 -112v-106l-14 -94v-35q-126 -163 -157 -182h-7l-21 17v41l14 112v100l14 112v105q0 27 157 206h14zM185 962h6l21 -17v-178l-21 -111l-6 -594l-158 -172q-27 9 -27 17l7 616l20 100v167q126 153 158 172z" />
    <glyph glyph-name="j" unicode="j" horiz-adv-x="551" 
d="M387 1849q22 -9 22 -18l-45 -137v-59q0 -45 73 -54q85 -30 97 -48q-49 -122 -176 -255l-260 -143h-11l-17 18v5q125 212 187 221q-46 35 -46 65v84q8 103 170 321h6zM697 1480h23l17 -18q-85 -155 -192 -250q-141 -137 -141 -155q39 -219 169 -452q45 -67 45 -262v-12
q0 -105 -175 -321q0 -22 -102 -60h-84q-150 42 -215 131q-56 108 -56 214v42q13 98 186 321q22 -9 22 -17l-56 -137v-6q0 -231 152 -310l91 -30h51q29 0 34 18q0 173 -51 250l-79 161q-85 231 -85 292v71h-6q-182 -117 -276 -214h-12l-17 18v6q100 182 243 291
q190 121 249 185q80 104 265 244z" />
    <glyph glyph-name="k" unicode="k" horiz-adv-x="1024" 
d="M222 1437h6l17 -18v-12q0 -87 53 -461l12 -293v-42h6l295 155q85 33 373 252q111 71 218 174h12l18 -18v-6q-134 -242 -402 -396q-246 -197 -372 -245v-6q194 0 490 -120l337 -84q106 -22 106 -42v-6q-109 -165 -136 -185h-6q-470 108 -573 161q-184 60 -378 60
q-13 -143 -59 -179q-68 -107 -94 -126h-6l-18 18v12l24 281l-6 6h-6l-153 -6q-30 5 -30 18q129 198 148 198l53 12q-24 335 -65 617v95q109 166 136 186z" />
    <glyph glyph-name="l" unicode="l" horiz-adv-x="238" 
d="M122 1851h6q29 0 40 -365l98 -1413l-132 -199h-6q-34 0 -34 279q-41 477 -104 1499z" />
    <glyph glyph-name="m" unicode="m" horiz-adv-x="1199" 
d="M964 1363q32 0 100 -291q161 -695 208 -799q50 -57 83 -176l-136 -210h-12q-12 2 -66 135q-49 32 -130 393l-131 549h-5q-84 -233 -214 -725l-136 -210q-25 0 -119 217q-94 167 -237 508h-6q-26 -491 -42 -569q-120 -196 -130 -196h-6l-18 13q53 1009 65 1056l131 203
q50 0 148 -270l267 -569l18 -20l219 690q0 75 149 271z" />
    <glyph glyph-name="n" unicode="n" horiz-adv-x="856" 
d="M77 1205q31 -20 122 -154q95 -170 285 -430q33 -26 159 -208l102 -104v29q0 120 -28 392v321q87 137 108 154h5l14 -15v-292l28 -327q0 -295 32 -396q0 -37 19 -55v-15l-107 -158q-18 0 -99 94q-15 0 -126 139q-132 133 -177 228q-94 91 -252 346l-38 45v-5l38 -659
l-108 -148h-5q-28 0 -28 247l-51 813q80 132 107 158z" />
    <glyph glyph-name="o" unicode="o" horiz-adv-x="841" 
d="M553 1415h5q98 0 221 -169q88 -138 88 -184q44 -69 44 -238v-69q-49 -368 -69 -368q-30 -80 -181 -263q-141 -122 -186 -124h-103q-136 0 -289 204q-96 227 -103 327v40q0 330 64 412q84 132 112 159h10q15 0 15 -20q-29 -39 -59 -169v-25h5q18 150 157 318
q106 169 269 169zM254 933q0 -224 143 -337q14 0 24 -20q-91 -142 -118 -159q-43 0 -122 114q-59 119 -59 224v74h-5l-5 -25v-114q9 -106 98 -318q126 -198 294 -198h44q89 0 187 154l44 298v10q0 210 -54 297q0 45 -118 214q-96 94 -152 94q-142 0 -186 -134
q-15 -74 -15 -174zM122 909l-5 -30v-5h5l5 25v10h-5z" />
    <glyph glyph-name="p" unicode="p" horiz-adv-x="625" 
d="M-60 1608h5q42 -32 82 -107l108 -145q68 -35 159 -117q150 -117 263 -175q175 -126 175 -199l5 -34v-38q0 -108 -170 -297q-61 -77 -149 -77h-52v-5l67 -320l-118 -146h-5q-24 0 -82 315l-201 869q-33 76 -123 180l-83 131v10zM228 1026v-5l61 -277q62 63 83 63l10 -19
l-57 -88q0 -40 62 -68q38 -43 129 -43q82 0 82 68v34q0 99 -185 218z" />
    <glyph glyph-name="q" unicode="q" horiz-adv-x="812" 
d="M420 1340h53q90 0 240 -177q144 -282 144 -397v-67q0 -194 -53 -324q0 -46 -85 -167q49 -56 197 -146l32 -31v-5q-100 -149 -128 -167q-210 141 -245 183q-112 -73 -177 -73h-42q-181 46 -251 140q-80 151 -128 334v57q29 261 53 261q102 131 102 167q0 118 213 375
q59 37 75 37zM276 1048v-16q0 -67 90 -307q42 -70 80 -188q142 -190 214 -271h11q42 144 42 276v52q0 108 -128 381q-130 182 -256 182q-53 0 -53 -109zM142 777q-21 -83 -21 -136v-36q53 -200 139 -344q65 -71 208 -110v5q-203 248 -203 329q-71 123 -117 292h-6z" />
    <glyph glyph-name="r" unicode="r" horiz-adv-x="767" 
d="M62 1549l334 -345q369 -336 370 -392l20 -31v-100q0 -36 -131 -214l-97 -79h-5l177 -83q205 -110 334 -110l41 -10l5 -6v-10q-93 -145 -116 -162h-5q-173 0 -517 183l-121 42v-6l15 -151l-116 -157h-5q-27 0 -41 267l-35 141q-122 35 -122 52l81 120q0 42 -71 460
l-105 377l-11 47zM199 1099l46 -292l45 -267l10 -26l5 -5h86q258 34 258 73v21q0 23 -60 115q-59 71 -213 209z" />
    <glyph glyph-name="s" unicode="s" horiz-adv-x="1005" 
d="M370 1266q155 0 411 -189q142 -130 142 -185l-148 -154h-6q-13 0 -65 82l-135 128q-19 0 -70 41q-166 98 -283 98q-59 0 -77 -26q74 -117 289 -220q135 -101 315 -174q398 -252 398 -318l13 -71v-47q0 -55 -180 -235q-49 -36 -244 -36h-45q-145 0 -437 97
q-301 171 -301 267l-7 87q1 37 167 205h6l20 -16v-10l-20 -41q0 -126 65 -164q200 -174 424 -210q137 -36 269 -36q80 0 103 21q0 72 -173 189q-256 178 -418 241q-167 113 -302 184q-115 109 -115 128l-13 57q0 100 205 287q29 20 212 20z" />
    <glyph glyph-name="t" unicode="t" horiz-adv-x="726" 
d="M466 1411h5q21 0 21 -83v-70l557 53l5 -6v-6q-128 -201 -140 -201l-411 -41l31 -949q-90 -157 -120 -189h-5l-16 12l-41 1108l-6 6l-5 -6h-5l-556 -47l-11 18v6q105 189 141 189q457 33 457 53q66 123 99 153z" />
    <glyph glyph-name="u" unicode="u" horiz-adv-x="789" 
d="M833 1154h11q18 0 27 -110v-291l-5 -33l5 -33q-41 -228 -170 -424q-148 -208 -193 -220q-125 -93 -242 -93h-11q-76 0 -209 148q-66 117 -66 352v204q0 72 50 236q111 160 121 160h5l17 -17v-16q-44 -167 -44 -237v-192q0 -323 187 -424q17 -15 60 -22q64 0 204 77
q66 36 121 226q22 67 22 313v66l-17 160z" />
    <glyph glyph-name="v" unicode="v" horiz-adv-x="849" 
d="M919 1290h11l16 -15q-16 -28 -117 -486q-64 -188 -202 -677q-120 -162 -133 -162q-26 0 -37 86q-159 375 -372 799q-85 184 -85 222q98 140 122 157h6q17 0 37 -81l313 -652l85 -207q11 0 69 237q63 154 155 607q95 138 132 172z" />
    <glyph glyph-name="w" unicode="w" horiz-adv-x="1072" 
d="M648 1311q27 -10 30 -20v-10l-6 -46q35 -197 83 -349q0 -123 130 -495h11v5q24 233 83 379q65 238 100 278q104 121 118 127q24 -5 24 -21q-59 -156 -94 -303q-39 0 -89 -546v-151l12 -96q-124 -152 -142 -152q-29 0 -29 41q-189 308 -189 394q-72 154 -107 429l-17 61
q-12 0 -124 -324q-12 -77 -89 -348l6 -51l-142 -161q-35 0 -35 20l6 65q0 42 -124 465q-58 295 -124 470v26q109 139 136 156h6q23 0 124 -379q29 -172 88 -348h6l106 298l59 227l42 177v15q113 144 141 167z" />
    <glyph glyph-name="x" unicode="x" horiz-adv-x="864" 
d="M238 1258h5q83 -98 230 -432q60 -145 70 -145l170 210q65 102 276 367h15l15 -16v-6q-97 -156 -321 -442l-130 -178q212 -358 256 -410q15 0 15 -17l100 -70v-5l-115 -172q-64 0 -151 118q-58 71 -145 232q-26 26 -100 156q-191 -238 -296 -350q0 -11 -60 -65
q-90 -108 -104 -108q-21 9 -21 17q86 160 170 237l176 199l110 135q-132 308 -276 556l-5 6v16q93 149 116 167z" />
    <glyph glyph-name="y" unicode="y" horiz-adv-x="849" 
d="M615 1445q28 0 42 -118q30 -47 54 -303q17 -23 30 -157l155 -549q22 -17 120 -309l41 -83q-114 -159 -144 -186q-28 1 -155 152q-51 71 -340 302q-89 90 -155 90l-48 28v6l138 179q110 -16 215 -106q12 -27 119 -101v5l-102 387q-23 54 -23 140q-219 -308 -329 -308h-48
q-215 57 -215 308v28q0 141 191 343h12l18 -17v-6q-39 -47 -60 -168q17 -238 138 -269q16 -23 65 -23q55 0 108 112q47 139 47 214l-17 235q116 169 143 174z" />
    <glyph glyph-name="z" unicode="z" horiz-adv-x="953" 
d="M933 1363q18 0 18 -25q-46 -228 -471 -825q-202 -211 -286 -323h6l274 25h221l131 -7q-12 57 -18 342l137 186h6q23 0 23 -87v-99q0 -59 54 -367l-137 -198h-89l-381 13h-6l-423 -38l-12 19q102 219 447 583l154 180q142 227 191 385h-6q-303 -122 -738 -211l-18 19v6
q124 205 167 205q402 87 732 217h24z" />
    <glyph glyph-name="Ntilde" unicode="&#xd1;" horiz-adv-x="1139" 
d="M1091 1713q23 -8 23 -17v-5q-135 -197 -166 -197q-242 -89 -528 -89l-125 -6l-11 17v6q108 155 142 179q379 0 576 78q23 0 89 34zM105 1562q45 -2 238 -404l297 -521q168 -216 249 -342l24 -17v185q0 300 65 421q96 437 125 498q89 129 124 163q24 -9 24 -17v-22
l-113 -482q-65 -117 -65 -477q24 -364 71 -465l18 -45l-142 -179q-14 0 -214 185q-77 61 -184 235q-36 26 -202 281q-99 207 -160 285q12 -73 12 -196v-84l-36 -409v-34l-136 -178h-12l-18 11l35 448v89l6 23q-23 316 -77 571l-65 264l-6 33z" />
    <glyph glyph-name="aacute" unicode="&#xe1;" horiz-adv-x="864" 
d="M231 1489q24 -10 27 -21l-5 -53q0 -227 49 -388q22 -196 94 -410l89 -192h50l44 12h12l16 -16v-6l-78 -106v-11q101 -158 167 -234v-10l-122 -165h-17q-130 136 -211 309q-7 37 -22 37h-44l-371 5l-177 -254l-6 -6h-12l-16 16v15q0 12 127 202l6 27h-16l-83 -5l-12 15v6
q114 169 145 169q55 0 55 38q72 170 177 824v27q107 150 134 175zM147 862q-61 -242 -99 -324l-40 -113h250v6q-46 87 -77 250l-28 181h-6zM464 1538l-2 -6q-112 -334 -121 -329q-5 35 -10 196q115 330 121 329l1 -1q5 -22 11 -189z" />
    <glyph glyph-name="eacute" unicode="&#xe9;" horiz-adv-x="1147" 
d="M750 1345h54q89 -30 145 -94q38 -64 59 -149v-60q0 -498 -80 -530q-36 -74 -97 -133q-53 0 -547 276l-81 50q-48 -108 -48 -160q23 -183 70 -270q96 -122 214 -122h49q105 0 193 83l91 77q21 -8 21 -16q0 -25 -139 -216l-118 -82q-60 -39 -91 -39h-145q-117 0 -226 155
q-40 66 -64 242v17q0 98 80 265q0 22 54 105l-80 49q0 15 102 171l21 22l86 -49q309 408 477 408zM316 904q174 -114 536 -293l6 6v5l5 282q0 65 -64 176q-73 72 -145 72q-112 0 -338 -248zM1183 1418l-2 -6q-147 -319 -156 -313q-1 35 12 195q148 317 154 315l2 -1
q2 -23 -10 -190z" />
    <glyph glyph-name="iacute" unicode="&#xed;" horiz-adv-x="223" 
d="M175 972h6l21 -17v-178l-21 -111l-6 -594l-158 -172q-27 9 -27 17l7 616l20 100v167q126 153 158 172zM220 1312l-2 -6q-112 -334 -121 -329q-5 35 -10 196q115 330 121 329l1 -1q5 -22 11 -189z" />
    <glyph glyph-name="ntilde" unicode="&#xf1;" horiz-adv-x="968" 
d="M771 1497q23 -9 23 -18v-5q-122 -193 -147 -193q-434 -129 -550 -129h-17l-11 18v5q103 162 136 187h22q91 0 544 135zM931 1304q23 -9 23 -18v-216q24 -819 96 -877v-6l-130 -187h-6q-40 0 -442 386q-86 55 -300 316q18 0 23 -609l-131 -175h-5q-23 12 -23 36
q0 416 -45 870l-6 112q98 155 130 187q38 0 216 -234q105 -167 487 -497l-17 520v193q0 31 130 199z" />
    <glyph glyph-name="oacute" unicode="&#xf3;" horiz-adv-x="876" 
d="M573 1385h5q98 0 221 -169q88 -138 88 -184q44 -69 44 -238v-69q-49 -368 -69 -368q-30 -80 -181 -263q-141 -122 -186 -124h-103q-136 0 -289 204q-96 227 -103 327v40q0 330 64 412q84 132 112 159h10q15 0 15 -20q-29 -39 -59 -169v-25h5q18 150 157 318
q106 169 269 169zM274 903q0 -224 143 -337q14 0 24 -20q-91 -142 -118 -159q-43 0 -122 114q-59 119 -59 224v74h-5l-5 -25v-114q9 -106 98 -318q126 -198 294 -198h44q89 0 187 154l44 298v10q0 210 -54 297q0 45 -118 214q-96 94 -152 94q-142 0 -186 -134
q-15 -74 -15 -174zM142 879l-5 -30v-5h5l5 25v10h-5zM913 1605l-2 -6q-112 -334 -121 -329q-5 35 -10 196q115 330 121 329l1 -1q5 -22 11 -189z" />
    <glyph glyph-name="uacute" unicode="&#xfa;" horiz-adv-x="824" 
d="M853 1154h11q18 0 27 -110v-291l-5 -33l5 -33q-41 -228 -170 -424q-148 -208 -193 -220q-125 -93 -242 -93h-11q-76 0 -209 148q-66 117 -66 352v204q0 72 50 236q111 160 121 160h5l17 -17v-16q-44 -167 -44 -237v-192q0 -323 187 -424q17 -15 60 -22q64 0 204 77
q66 36 121 226q22 67 22 313v66l-17 160zM577 1284l-2 -6q-147 -319 -156 -313q-1 35 12 195q148 317 154 315l2 -1q2 -23 -10 -190z" />
    <glyph glyph-name="registered" unicode="&#xae;" horiz-adv-x="1288" 
d="M74 1713q71 -39 134 -127q16 0 219 -217h7q32 37 438 115h84q154 -28 311 -157l50 -48q42 -69 42 -133v-42q-61 -258 -134 -332q-120 -187 -198 -277q395 -170 495 -181q49 -20 49 -31v-6q-130 -166 -162 -187h-15q-214 55 -558 206l-7 6q-114 -104 -261 -139
q-170 -44 -170 -85l-77 -78h-7q-24 0 -29 90q-12 31 -63 31q-148 42 -191 108l-70 97l-28 132v139q0 161 148 368l63 72l-21 127l56 72l-275 278v12q138 181 170 187zM575 1236v-6l170 -144q169 -170 169 -217l7 -25v-24q0 -26 -141 -193q160 -96 184 -96q147 158 169 289
l35 139q0 158 -261 277q-98 37 -127 37zM398 1019l-7 -6q0 -187 57 -187l212 -42l-177 175q-16 0 -85 60zM172 971q-49 -166 -49 -332q0 -107 127 -247q0 76 -49 398q0 101 -22 181h-7zM462 501v-12l-7 -157l7 -6h7q70 0 212 48v12l-198 109z" />
    <glyph glyph-name="copyright" unicode="&#xa9;" horiz-adv-x="1288" 
d="M719 1646h6q28 -12 28 -129l165 16h79q250 -33 250 -70q48 0 86 -172q15 0 45 -204v-32q-17 -188 -68 -318q-29 -88 -171 -269q-157 -184 -227 -236q-174 -97 -341 -97h-261q-131 0 -244 91q-75 53 -125 221v102q0 134 97 355q18 109 249 382l40 32h12l17 -16v-6l-69 -96
h6q41 60 171 150l125 86q0 69 51 108q39 70 79 102zM776 1339q2 -83 114 -263l17 -48l-131 -167h-11q-13 0 -108 102q-33 38 -86 38q-170 0 -249 -129q-23 -84 -23 -146q40 -161 91 -161q59 -86 284 -86h5q205 35 205 151l125 156h5l18 -16v-33q-35 -128 -228 -339l-85 -69
h11q244 43 319 129q134 133 147 279l29 188q-34 173 -57 232q-26 166 -176 166q-102 22 -165 22h-40l-5 -6h-6zM94 700v-70q0 -54 91 -210h12q-52 87 -52 145q0 201 137 350q205 274 329 274l-11 107h-6q-141 -53 -363 -252q-114 -126 -114 -221z" />
    <glyph glyph-name="trademark" unicode="&#x2122;" horiz-adv-x="1958" 
d="M1453 1724q35 0 126 -312q18 -117 146 -440q145 -274 251 -420q79 -140 146 -204v-6q-124 -182 -159 -204q-73 40 -112 127q-38 39 -93 153q-60 62 -205 344q-52 108 -100 261h-6v-6q-7 -327 -33 -535l6 -45q-123 -187 -159 -203q-25 0 -112 184q-63 66 -146 255
q-44 39 -92 197h-7q0 -104 -106 -414l-152 -191h-7l-20 19v13q113 302 113 542l-7 95v166h-79l-7 -7h-6l13 -223q-33 -236 -33 -343v-83l-153 -204q-26 9 -26 19v140q0 124 26 268l-6 331v6l-13 89q-583 24 -583 45v13q130 191 159 197l430 -13q104 150 126 160h7
q25 0 33 -172h106q39 0 112 127q53 70 66 70q31 0 60 -114l46 -71l258 7l20 -19v-7q-120 -176 -159 -203h-46q30 -127 179 -383h6l7 236v185l33 178v121l-6 70q122 187 158 204z" />
    <glyph glyph-name="ordfeminine" unicode="&#xaa;" horiz-adv-x="2829" 
d="M1183 1871q120 -112 120 -163l-13 -167v-27q0 -53 31 -68q62 -10 62 -22q-74 -136 -146 -136l-9 -9h-107q-9 0 -9 14q47 78 67 90h40l-4 45v37l13 167q0 26 -89 117q-22 20 -22 32q47 78 66 90zM1850 1564q10 -6 40 -172l26 -40q-47 -79 -66 -91q-39 0 -67 213
q47 78 67 90zM269 1532q11 0 57 -176l156 -36v18q0 73 71 140l4 -4h5q0 -66 -31 -168l35 -9h18q78 0 98 27l13 -9q151 46 151 86h4q15 0 18 -67l71 90q55 -85 80 -298q18 -69 18 -185v-73l-18 -95v-13q83 77 107 77l49 18l-18 49q47 79 66 91q18 -10 45 -95h4l-17 185
q9 51 31 90q-90 -27 -129 -27h-67q-9 0 -9 14q47 79 67 90h62q173 30 173 63l40 28l5 -5h4l13 14h9l9 -9l-9 -32q42 -43 142 -253l116 -145v5q-9 57 -13 248l4 122l58 91h9l9 -9l-5 -122q0 -144 31 -416q18 -69 40 -95v-9l-22 -31q80 0 80 -55v-22q0 -23 -76 -127h5l75 14h9
v5l-9 216v18q0 18 36 64q-43 50 -85 131q47 78 67 90l67 -95l164 -199l44 -67v-37q0 -17 -26 -58v-5h4l133 100l54 63l-27 72q47 79 67 90q11 0 66 -167l5 -104v-103q405 234 417 234l5 -13q-48 -93 -129 -131l-258 -145v-4l174 -32q220 -23 226 -31v-14l-58 -86
q-212 18 -373 54q0 -122 -58 -176l40 -99v-5l-53 -80h-13q-30 22 -71 166q-12 87 -27 104l-9 276l9 58q-57 -53 -120 -95q-66 -55 -111 -81l-4 -31q62 -177 124 -217l9 -18q-47 -79 -67 -91q-102 94 -102 149q-25 38 -31 73h-4q-96 -99 -182 -113l-40 -63h-9q-12 0 -36 67
q-62 8 -62 23l31 54l-49 113l-71 -18l-9 13l49 82l-62 153h-71q-9 0 -9 14q54 90 71 90l187 -4l-120 153q-115 149 -160 267h-5v-14q18 -330 40 -330v-9q-46 -78 -66 -90q-33 0 -49 339v158l-9 45l-22 -13v-14l-9 -32l27 -302q17 -53 44 -258l27 -90l-58 -90h-9
q-29 0 -53 225v10q-16 0 -76 72q-47 27 -62 27h-40q-58 -6 -137 -77q-67 -125 -138 -212l-13 13q0 30 39 95q-169 162 -328 213v-5q0 -18 26 -54q0 -27 -66 -100q-28 12 -67 168l-4 18q-62 -91 -98 -91l-31 -4h-35q-176 50 -227 113q-40 58 -40 76q0 14 58 100h9q9 0 9 -23
q69 -117 133 -117q100 -45 115 -45h49q-34 84 -124 135q-46 40 -169 99l-13 -4l-84 54q-54 71 -54 104v27q0 50 84 140l27 9h71q45 0 98 -13l-18 72q47 79 67 90zM881 1297l5 -67v-86q31 -175 49 -352l13 -46h5l8 59v50l-4 135q-11 0 -31 176l-40 131h-5zM633 1144v-9
q2 -53 53 -95h40q58 7 58 54v190q-39 -47 -107 -63q-40 0 -40 -46zM20 1279q36 -95 80 -95q5 -16 71 -36q57 -36 98 -49q111 -79 146 -118q15 -31 22 -31v76l18 181l-133 36v-4l-31 -50h-9l-120 77q-51 13 -107 13h-35zM553 1194h-31l-9 -91v-194l9 -36v-14h9q19 45 35 45
q24 0 200 -85l84 -64v41l-26 194q-14 30 -14 63h-4q-62 -104 -124 -117h-40q-34 0 -67 54l-18 45v37q0 62 40 126zM1983 764v-9q0 -138 40 -257q102 27 102 54v18q0 24 -84 122l-27 36q-27 25 -27 36h-4zM2374 701l-9 -86l4 -176v-4h5l26 45v54q0 105 -22 167h-4zM1206 597
h9q14 -17 35 -158l22 -131q119 50 218 109l4 -5v-4q-28 -87 -133 -145l-67 -27q28 -71 125 -163v-4l-67 -94h-9q-103 112 -142 130q0 14 -26 27h-5q-28 -65 -120 -167q-9 0 -9 14l94 153v18q-74 23 -174 32l-22 18v9l58 86l98 -5h57v145l-4 72zM1663 593q32 -85 49 -104h4
l107 63l4 5v9q-18 27 -44 27h-120zM1770 390h-23q46 -113 58 -113h14q81 0 119 36q36 8 36 27q-33 63 -98 63h-9zM2374 376v-9q26 -96 26 -136h5v127q0 10 -31 18z" />
    <glyph glyph-name="questiondown" unicode="&#xbf;" horiz-adv-x="994" 
d="M514 -73h-121q-137 48 -137 138q-17 35 -17 74v44q55 182 121 309q83 199 83 251q0 59 -55 128l-66 84l142 177h12q137 -133 137 -231q0 -54 -88 -266q-61 -113 -115 -294v-40q23 -172 109 -172h117q119 24 181 84q99 81 99 161q0 143 -127 256v5l143 177h5
q58 -17 121 -147q28 -95 28 -133q0 -116 -291 -433q-85 -117 -237 -162zM176 1441l1 -18l19 -43l-121 -98q72 -79 147 -76h17q61 2 73 60l-2 36q-3 57 -107 135l-10 4h-17zM269 1612l25 1q59 2 126 -62q62 -69 64 -117l1 -31q-10 -95 -141 -226q-154 -174 -255 -178l-13 -1
q-63 -2 -146 79q-41 38 -44 109l-1 22q7 63 24 63l-6 4l-1 10q-1 24 169 187l7 4h7l32 -3q59 84 152 139z" />
    <glyph glyph-name="exclamdown" unicode="&#xa1;" horiz-adv-x="552" 
d="M294 1214h7l28 -19v-10q56 -345 225 -885l49 -203q-175 -169 -189 -169q-37 0 -50 116q-189 619 -252 972v24q170 173 182 174zM163 1680h7q33 0 70 -184q14 0 21 -150q-175 -169 -189 -169q-35 0 -35 107l-42 164q-11 0 -14 63z" />
  </font>
</defs>
</svg>
